<svg width="106" height="20" viewBox="0 0 106 20" fill="none" xmlns="http://www.w3.org/2000/svg">
<g style="mix-blend-mode:difference">
<path d="M11.5446 0.335327L7.48236 11.0492L3.08678 0.335327H0L5.8155 14.2397H8.70473L14.5449 0.335327H11.5446Z" fill="black"></path>
</g>
<g class="fade-off" style="mix-blend-mode: difference; translate: none; rotate: none; scale: none; transform-origin: 0px 0px; opacity: 1;" data-svg-origin="16.855499267578125 0" transform="matrix(1,0,0,1,0,0)">
<path d="M25.7578 11.9677C25.2145 12.0795 24.6342 12.1291 24.0045 12.1291C22.6092 12.1291 21.5474 11.7318 20.8312 10.9249C20.2015 10.2173 19.8558 9.22409 19.7694 7.94538H29.4742C29.4866 6.3563 29.289 4.96586 28.8816 3.77406C28.4741 2.58225 27.8074 1.65115 26.8813 0.993172C25.9677 0.322781 24.7576 0 23.276 0C21.251 0 19.683 0.620733 18.547 1.87461C17.4111 3.11608 16.8555 4.95345 16.8555 7.37431C16.8555 8.93855 17.1271 10.2793 17.6704 11.3594C18.2137 12.4519 18.9792 13.2713 19.9793 13.8299C20.9794 14.3886 22.1647 14.6617 23.5229 14.6617C24.5354 14.6617 25.4367 14.5748 26.2516 14.401C27.0666 14.2272 27.7827 14.0037 28.4247 13.7182V11.0242C28.0914 11.1856 27.6963 11.3594 27.2394 11.5332C26.7949 11.7194 26.2887 11.856 25.7578 11.9677ZM21.3251 2.84296C21.8437 2.53259 22.4611 2.38361 23.2019 2.38361C24.3378 2.38361 25.1774 2.70639 25.7084 3.36437C26.1529 3.91062 26.4245 4.71757 26.5356 5.78523H19.8435C19.9052 5.23898 20.0163 4.77964 20.1522 4.38237C20.4238 3.66232 20.8189 3.14091 21.3251 2.84296Z" fill="black"></path>
</g>
<g class="fade-off" style="mix-blend-mode: difference; translate: none; rotate: none; scale: none; transform-origin: 0px 0px; opacity: 1;" data-svg-origin="33.20309829711914 0.024902302771806717" transform="matrix(1,0,0,1,0,0)">
<path d="M45.1428 1.58915C44.6489 1.06773 43.9945 0.670464 43.192 0.409757C42.377 0.149049 41.4881 0.0249023 40.4879 0.0249023C39.5496 0.0249023 38.6482 0.136634 37.7716 0.347683C36.8949 0.558732 36.117 0.943587 35.4256 1.50225C34.7342 2.06091 34.1909 2.83061 33.7958 3.82379C33.4007 4.81696 33.2031 6.10808 33.2031 7.67233C33.2031 9.14967 33.4377 10.4036 33.9069 11.4464C34.3761 12.4768 35.0675 13.2713 36.0059 13.8176C36.932 14.3638 38.0679 14.6494 39.4137 14.6618C39.9447 14.6618 40.4879 14.5873 41.0312 14.4507C41.5745 14.3142 42.0931 14.128 42.5746 13.8921C42.7351 13.8176 42.8833 13.7307 43.0314 13.6438V14.5997C43.0314 15.0963 42.945 15.568 42.7598 16.0026C42.5746 16.4371 42.2165 16.7971 41.6733 17.0702C41.13 17.3433 40.3151 17.4799 39.2409 17.4799C38.6729 17.4799 38.1173 17.4302 37.574 17.3309C37.0307 17.2316 36.5369 17.1075 36.1047 16.9833C35.6726 16.8592 35.2898 16.735 35.0058 16.6233V19.28C35.4997 19.4414 36.1294 19.6028 36.8826 19.7642C37.6357 19.9256 38.4877 20.0001 39.4508 20.0001C40.6484 20.0001 41.6609 19.8635 42.4758 19.5904C43.3031 19.3173 43.9698 18.92 44.4761 18.4234C44.9823 17.9268 45.3527 17.3558 45.575 16.7226C45.8096 16.0895 45.9207 15.3942 45.9207 14.6618V3.62515C45.8836 2.79337 45.6367 2.12298 45.1428 1.58915ZM41.5004 12.0919C40.9448 12.2285 40.4015 12.303 39.8706 12.303C38.5988 12.303 37.6604 11.8685 37.0554 10.9995C36.4504 10.1304 36.1417 9.0007 36.1417 7.58543C36.1417 6.64191 36.2529 5.7853 36.4751 5.00318C36.6974 4.23347 37.1048 3.61274 37.6975 3.16581C38.2901 2.71888 39.1544 2.483 40.278 2.483C40.7596 2.483 41.2041 2.53266 41.6239 2.61957C42.0437 2.70647 42.377 2.86786 42.624 3.10374C42.8709 3.33961 42.9944 3.68723 42.9944 4.1714V11.4588C42.5499 11.7443 42.056 11.9554 41.5004 12.0919Z" fill="black"></path>
</g>
<g class="fade-off" style="mix-blend-mode: difference; translate: none; rotate: none; scale: none; transform-origin: 0px 0px; opacity: 1;" data-svg-origin="50.32809829711914 0.03723139688372612" transform="matrix(1,0,0,1,0,0)">
<path d="M62.0579 2.83053C61.8603 2.30911 61.5764 1.8746 61.2183 1.51458C60.8602 1.15455 60.4528 0.869013 59.9959 0.657964C59.5391 0.446915 59.0452 0.285524 58.5266 0.186207C58.008 0.0868901 57.4895 0.0372314 56.9709 0.0372314C55.9214 0.0372314 54.9089 0.148963 53.9211 0.360012C52.9334 0.571061 52.1925 0.856598 51.674 1.20421V3.92302C52.2049 3.47609 52.884 3.12848 53.7112 2.88019C54.5385 2.63189 55.3411 2.50775 56.1066 2.50775C57.1931 2.50775 58.0204 2.73121 58.6131 3.19055C59.2057 3.63748 59.4897 4.35753 59.4897 5.33829V6.65424C59.2798 6.53009 59.0452 6.40595 58.7859 6.29422C58.3414 6.09558 57.8352 5.94661 57.2672 5.83487C56.7116 5.72314 56.0819 5.67348 55.3781 5.67348C54.3286 5.67348 53.4273 5.83487 52.6741 6.17007C51.9209 6.50527 51.3406 7.00185 50.9331 7.67224C50.5257 8.34263 50.3281 9.18683 50.3281 10.2172C50.3281 11.0863 50.4886 11.8063 50.8097 12.3898C51.1307 12.9733 51.5628 13.4326 52.1061 13.7554C52.6494 14.0906 53.2544 14.3265 53.9088 14.4631C54.5755 14.5996 55.2546 14.6741 55.9708 14.6741C57.1808 14.6741 58.2673 14.5872 59.2181 14.4134C60.1688 14.2396 60.9343 13.9044 61.4899 13.4202C62.0456 12.9361 62.3295 12.2284 62.3295 11.3221V4.65548C62.3542 3.94785 62.2555 3.33953 62.0579 2.83053ZM58.7242 12.1663C58.2056 12.3153 57.4154 12.3898 56.3288 12.3898C55.8103 12.3898 55.3287 12.3153 54.8595 12.1539C54.3903 11.9925 53.9952 11.7442 53.6865 11.4091C53.3779 11.0614 53.2174 10.6145 53.2174 10.0683C53.2174 9.3358 53.489 8.77715 54.0323 8.40471C54.5755 8.03227 55.3658 7.84605 56.4153 7.84605C57.2055 7.84605 57.934 7.94536 58.6254 8.13158C58.9464 8.21849 59.2428 8.33022 59.502 8.44195V11.1359C59.4897 11.6698 59.2304 12.0174 58.7242 12.1663Z" fill="black"></path>
</g>
<g class="fade-off" style="mix-blend-mode: difference; translate: none; rotate: none; scale: none; transform-origin: 0px 0px; opacity: 1;" data-svg-origin="67.53910064697266 0.012573201209306717" transform="matrix(1,0,0,1,0,0)">
<path d="M67.5391 1.46509C67.9465 1.26645 68.4034 1.06782 68.8972 0.894014C69.4035 0.720208 69.9344 0.571233 70.5147 0.434671C71.0827 0.310525 71.663 0.198793 72.2557 0.124305C72.8483 0.0498172 73.4163 0.0125732 73.9596 0.0125732C75.2684 0.0125732 76.3302 0.198793 77.1575 0.558818C77.9847 0.918843 78.6021 1.4775 79.0096 2.22238C79.417 2.96726 79.6146 3.91077 79.6146 5.04051V14.2398H76.7253V5.42536C76.7253 5.07775 76.6883 4.73014 76.6019 4.38253C76.5154 4.03492 76.3673 3.72455 76.1327 3.43902C75.8981 3.15348 75.577 2.93002 75.1449 2.75621C74.7127 2.59482 74.1448 2.50792 73.4533 2.50792C72.9595 2.50792 72.4532 2.55758 71.9223 2.64448C71.4037 2.73138 70.9098 2.86794 70.453 3.02933V14.2274H67.5391V1.46509Z" fill="black"></path>
</g>
<g class="shift" style="mix-blend-mode: difference; translate: none; rotate: none; scale: none; transform-origin: 0px 0px;" data-svg-origin="83.02339935302734 0.049682602286338806" transform="matrix(1,0,0,1,0,0)">
<path d="M83.0234 14.6617L90.4194 0.0496826H92.9382L85.5299 14.6493H83.0234V14.6617Z" fill="black"></path>
</g>
<g class="shift" style="mix-blend-mode: difference; translate: none; rotate: none; scale: none; transform-origin: 0px 0px;" data-svg-origin="94.96089935302734 0.07458500564098358" transform="matrix(1,0,0,1,0,0)">
<path d="M99.517 14.6618C98.5293 14.6618 97.6897 14.5501 96.9982 14.339C96.3068 14.128 95.64 13.8673 94.9733 13.5445V10.8008C95.4548 11.0988 95.924 11.3595 96.3809 11.5954C96.8377 11.8313 97.3192 12.0051 97.8255 12.1416C98.3317 12.2658 98.8997 12.3403 99.517 12.3403C100.307 12.3403 100.925 12.1789 101.381 11.8437C101.826 11.5085 102.061 11.0988 102.061 10.6022C102.061 10.1801 101.912 9.84492 101.628 9.60904C101.344 9.37316 100.986 9.16211 100.542 9.00072C100.097 8.83933 99.6405 8.66553 99.159 8.50414C98.6651 8.37999 98.1712 8.2186 97.6773 8.04479C97.1834 7.87099 96.7266 7.63511 96.3191 7.32474C95.9117 7.01438 95.5783 6.62952 95.3314 6.14535C95.0844 5.66118 94.9609 5.07769 94.9609 4.37006C94.9609 3.60035 95.1215 2.92996 95.4301 2.38371C95.7388 1.83747 96.1463 1.39054 96.6525 1.05534C97.1587 0.707732 97.7144 0.459439 98.3317 0.310463C98.9491 0.149073 99.5541 0.074585 100.134 0.074585C101.11 0.0994143 101.9 0.211146 102.517 0.43461C103.135 0.658074 103.74 0.918781 104.32 1.24156L104.345 3.73691C103.678 3.3893 103.061 3.07893 102.468 2.81822C101.875 2.55752 101.196 2.43337 100.431 2.43337C99.7146 2.43337 99.1219 2.56993 98.6404 2.83064C98.1589 3.10376 97.9242 3.48861 97.9242 4.01003C97.9242 4.45696 98.0601 4.80457 98.3194 5.06528C98.591 5.32598 98.9367 5.52462 99.3689 5.67359C99.801 5.82257 100.27 5.97155 100.764 6.12052C101.221 6.2695 101.702 6.41847 102.196 6.57986C102.69 6.74125 103.147 6.96472 103.579 7.26267C103.999 7.56062 104.345 7.94548 104.616 8.42965C104.888 8.91382 105.012 9.53455 105.012 10.3167C104.987 11.3471 104.728 12.1913 104.197 12.8369C103.678 13.4824 102.987 13.9542 102.147 14.2521C101.283 14.5128 100.418 14.6618 99.517 14.6618Z" fill="black"></path>
</g>
</svg>